Coordinates
version=1
nRows=7
nColumns=40
inDegrees=yes

Units are S.I. units (second, meters, Newtons, ...)
If the header above contains a line with 'inDegrees', this indicates whether rotational values are in degrees (yes) or radians (no).

endheader
time	pelvis_tilt	pelvis_list	pelvis_rotation	pelvis_tx	pelvis_ty	pelvis_tz	hip_flexion_r	hip_adduction_r	hip_rotation_r	knee_angle_r	knee_angle_r_beta	ankle_angle_r	subtalar_angle_r	mtp_angle_r	hip_flexion_l	hip_adduction_l	hip_rotation_l	knee_angle_l	knee_angle_l_beta	ankle_angle_l	subtalar_angle_l	mtp_angle_l	lumbar_extension	lumbar_bending	lumbar_rotation	arm_flex_r	arm_add_r	arm_rot_r	elbow_flex_r	pro_sup_r	wrist_flex_r	wrist_dev_r	arm_flex_l	arm_add_l	arm_rot_l	elbow_flex_l	pro_sup_l	wrist_flex_l	wrist_dev_l
      4.90000000	    -31.95610107	     -1.17717848	     -0.76684812	     -0.39414560	      0.64128499	     -0.89821764	     89.23564301	    -10.62874410	     -3.09781294	     92.43570482	      1.61330740	     36.79094943	      0.00000000	      0.00000000	     89.44584479	    -16.93295747	     -0.81609482	     91.81372685	      1.60245183	     35.62539580	      0.00000000	      0.00000000	    -29.15168294	    -14.78362683	    -42.44870605	     35.61713321	    -25.11053094	     89.67269140	     77.53678077	     88.62619102	      0.00000000	      0.00000000	    -72.31815688	    -14.61521341	    -17.63466699	    118.50320000	     88.13588634	      0.00000000	      0.00000000
      4.90500000	    -31.35640366	     -1.15300591	     -0.71876685	     -0.39230702	      0.64391623	     -0.89860524	     88.26782940	    -10.76276123	     -3.18266130	     92.19940380	      1.60918316	     36.87170717	      0.00000000	      0.00000000	     88.43835363	    -16.90665390	     -1.00235642	     91.56377104	      1.59808928	     35.74927562	      0.00000000	      0.00000000	    -29.46350642	    -14.71921735	    -42.52682429	     35.68092438	    -24.97066619	     89.65396001	     77.27408204	     88.62251606	      0.00000000	      0.00000000	    -72.19360583	    -14.80398599	    -17.61489146	    118.32536223	     88.14126208	      0.00000000	      0.00000000
      4.91000000	    -31.04451411	     -1.18525286	     -0.78356737	     -0.39071290	      0.64655334	     -0.89866952	     87.54838373	    -10.73121153	     -3.32848356	     91.77964532	      1.60185700	     36.81133513	      0.00000000	      0.00000000	     87.73854460	    -17.01700764	     -1.12024143	     91.19984270	      1.59173753	     35.68836534	      0.00000000	      0.00000000	    -29.41666563	    -14.64939370	    -42.51986041	     35.82142644	    -24.83355004	     89.66422969	     77.13150607	     88.61679008	      0.00000000	      0.00000000	    -72.03251354	    -14.95654660	    -17.78164117	    118.33007448	     88.13562674	      0.00000000	      0.00000000
      4.91500000	    -30.41070941	     -1.15388027	     -0.89775752	     -0.38839964	      0.64989162	     -0.89860217	     86.43517757	    -10.66377925	     -3.43329312	     91.37326458	      1.59476432	     36.80260427	      0.00000000	      0.00000000	     86.56603860	    -17.18355516	     -1.35498928	     90.82488170	      1.58519323	     35.69933742	      0.00000000	      0.00000000	    -29.62056197	    -14.68187771	    -42.42836054	     35.85696857	    -24.64796828	     89.64517947	     76.84023218	     88.60688093	      0.00000000	      0.00000000	    -71.83882005	    -15.17716919	    -17.82503237	    118.06830620	     88.13272069	      0.00000000	      0.00000000
      4.92000000	    -30.00195695	     -1.11516199	     -0.68102456	     -0.38662737	      0.65258455	     -0.89936666	     85.64503223	    -11.00742779	     -3.53178778	     91.12886626	      1.59049876	     36.93372480	      0.00000000	      0.00000000	     85.72975634	    -16.90025483	     -1.50376166	     90.48455452	      1.57925340	     35.88352120	      0.00000000	      0.00000000	    -29.60476784	    -14.52375311	    -42.64984246	     35.94651231	    -24.58998772	     89.64274692	     76.64983810	     88.59965143	      0.00000000	      0.00000000	    -71.65540651	    -15.40860892	    -17.78906331	    117.95207738	     88.14123517	      0.00000000	      0.00000000
      4.92500000	    -29.30382311	     -1.19404978	     -0.81217535	     -0.38404074	      0.65643997	     -0.89915755	     84.35754033	    -10.87744290	     -3.75329210	     90.63664662	      1.58190791	     36.91222635	      0.00000000	      0.00000000	     84.48949809	    -17.12767441	     -1.63984500	     90.07013356	      1.57202039	     35.86575420	      0.00000000	      0.00000000	    -29.82930322	    -14.48341339	    -42.55497198	     36.03757034	    -24.37891766	     89.63613251	     76.32657746	     88.59044213	      0.00000000	      0.00000000	    -71.47583265	    -15.58240522	    -17.92199554	    117.84478916	     88.13419642	      0.00000000	      0.00000000
      4.93000000	    -28.55071573	     -1.30056816	     -1.06791973	     -0.38120587	      0.66044960	     -0.89864418	     82.95842447	    -10.57725111	     -3.99964201	     90.10816525	      1.57268417	     37.07851496	      0.00000000	      0.00000000	     83.15858531	    -17.51743190	     -1.76613975	     89.68593413	      1.56531484	     36.00923640	      0.00000000	      0.00000000	    -29.93484454	    -14.45187028	    -42.24026068	     36.08361570	    -24.24128407	     89.62848507	     76.07941538	     88.57891586	      0.00000000	      0.00000000	    -71.22555630	    -15.85746037	    -18.06100995	    117.80127689	     88.14826515	      0.00000000	      0.00000000
